<svg xmlns="http://www.w3.org/2000/svg" width="1200" height="700" viewBox="0 0 1200 700">
      <rect width="1200" height="700" fill="#0a1524"/>
      <path d="M0 80H1200M0 160H1200M0 240H1200M0 320H1200M0 400H1200M0 480H1200M0 560H1200M120 0V700M240 0V700M360 0V700M480 0V700M600 0V700M720 0V700M840 0V700M960 0V700M1080 0V700" stroke="#1b3049" stroke-width="1" opacity=".45"/>
      <rect x="90" y="95" width="1020" height="510" rx="24" fill="#0e1b2d" stroke="#25405d"/>
      <rect x="125" y="130" width="260" height="26" rx="8" fill="#172941"/>
      <rect x="125" y="185" width="950" height="12" rx="6" fill="#172941"/>
      <rect x="125" y="215" width="760" height="12" rx="6" fill="#172941"/>
      <rect x="125" y="280" width="290" height="220" rx="16" fill="#12243a" stroke="#23405e"/>
      <rect x="445" y="280" width="290" height="220" rx="16" fill="#12243a" stroke="#23405e"/>
      <rect x="765" y="280" width="310" height="220" rx="16" fill="#12243a" stroke="#23405e"/>
      <text x="600" y="555" fill="#55e6c1" font-family="monospace" font-size="18" text-anchor="middle">PROJECT 1 SCREENSHOT PLACEHOLDER</text>
    </svg>